<svg width="21" height="21" viewBox="0 0 21 21" fill="none" xmlns="http://www.w3.org/2000/svg">
    <path d="M10.5 0.5C4.986 0.5 0.5 4.986 0.5 10.5C0.5 16.014 4.986 20.5 10.5 20.5C16.014 20.5 20.5 16.014 20.5 10.5C20.5 4.986 16.014 0.5 10.5 0.5ZM10.5 18.6818C5.98855 18.6818 2.31818 15.0115 2.31818 10.5C2.31818 5.98855 5.98855 2.31818 10.5 2.31818C15.0115 2.31818 18.6818 5.98855 18.6818 10.5C18.6818 15.0115 15.0115 18.6818 10.5 18.6818Z" fill="#3CFF2C"/>
    <path d="M12.9413 12.943C11.5943 14.2899 9.40278 14.29 8.05582 12.9431C7.70085 12.588 7.12521 12.588 6.77018 12.9431C6.41515 13.2981 6.41515 13.8737 6.77018 14.2287C7.79824 15.2568 9.14812 15.7706 10.4986 15.7706C11.8487 15.7706 13.1992 15.2565 14.227 14.2287C14.5821 13.8737 14.5821 13.2981 14.227 12.9431C13.8719 12.588 13.2963 12.588 12.9413 12.943Z" fill="#3CFF2C"/>
    <path d="M7.47729 9.41772C7.70335 9.19227 7.83245 8.87954 7.83245 8.56075C7.83245 8.24197 7.70335 7.92924 7.47729 7.70378C7.25184 7.47833 6.93911 7.34863 6.62032 7.34863C6.30087 7.34863 5.98881 7.47833 5.76329 7.70378C5.53729 7.92924 5.4082 8.24197 5.4082 8.56075C5.4082 8.87954 5.53729 9.19227 5.76329 9.41772C5.98881 9.64378 6.30154 9.77288 6.62032 9.77288C6.93911 9.77288 7.25184 9.64378 7.47729 9.41772Z" fill="#3CFF2C"/>
    <path d="M14.3781 7.34863C14.0593 7.34863 13.7466 7.47833 13.5211 7.70378C13.2957 7.92924 13.166 8.24136 13.166 8.56075C13.166 8.88015 13.2957 9.19227 13.5211 9.41772C13.7466 9.64378 14.0593 9.77288 14.3781 9.77288C14.6969 9.77288 15.0097 9.64378 15.2351 9.41772C15.4606 9.19227 15.5903 8.88015 15.5903 8.56075C15.5903 8.24197 15.4605 7.92924 15.2351 7.70378C15.0097 7.47833 14.6969 7.34863 14.3781 7.34863Z" fill="#3CFF2C"/>
</svg>