<svg width="21" height="21" viewBox="0 0 21 21" fill="none" xmlns="http://www.w3.org/2000/svg">
    <path d="M10.5 0.5C4.986 0.5 0.5 4.986 0.5 10.5C0.5 16.014 4.986 20.5 10.5 20.5C16.014 20.5 20.5 16.014 20.5 10.5C20.5 4.986 16.014 0.5 10.5 0.5ZM10.5 18.6818C5.98855 18.6818 2.31818 15.0115 2.31818 10.5C2.31818 5.98855 5.98855 2.31818 10.5 2.31818C15.0115 2.31818 18.6818 5.98855 18.6818 10.5C18.6818 15.0115 15.0115 18.6818 10.5 18.6818Z" fill="#F82D2D"/>
    <path d="M8.05672 15.5043C9.40375 14.1574 11.5953 14.1573 12.9422 15.5042C13.2972 15.8592 13.8728 15.8592 14.2279 15.5042C14.5829 15.1492 14.5829 14.5736 14.2279 14.2186C13.1998 13.1905 11.8499 12.6767 10.4994 12.6767C9.14938 12.6767 7.79884 13.1907 6.77102 14.2186C6.41599 14.5735 6.41599 15.1492 6.77102 15.5042C7.12611 15.8593 7.70175 15.8592 8.05672 15.5043Z" fill="#F82D2D"/>
    <path d="M7.47729 9.41772C7.70335 9.19227 7.83245 8.87954 7.83245 8.56075C7.83245 8.24197 7.70335 7.92924 7.47729 7.70378C7.25184 7.47833 6.93911 7.34863 6.62032 7.34863C6.30087 7.34863 5.98881 7.47833 5.76329 7.70378C5.53729 7.92924 5.4082 8.24197 5.4082 8.56075C5.4082 8.87954 5.53729 9.19227 5.76329 9.41772C5.98881 9.64378 6.30154 9.77288 6.62032 9.77288C6.93911 9.77288 7.25184 9.64378 7.47729 9.41772Z" fill="#F82D2D"/>
    <path d="M14.3781 7.34863C14.0593 7.34863 13.7466 7.47833 13.5211 7.70378C13.2957 7.92924 13.166 8.24136 13.166 8.56075C13.166 8.88015 13.2957 9.19227 13.5211 9.41772C13.7466 9.64378 14.0593 9.77288 14.3781 9.77288C14.6969 9.77288 15.0097 9.64378 15.2351 9.41772C15.4606 9.19227 15.5903 8.88015 15.5903 8.56075C15.5903 8.24197 15.4605 7.92924 15.2351 7.70378C15.0097 7.47833 14.6969 7.34863 14.3781 7.34863Z" fill="#F82D2D"/>
</svg>