<svg width="250" height="60" viewBox="0 0 250 60" fill="none" xmlns="http://www.w3.org/2000/svg">
<path d="M74.448 27.824C74.832 28.528 75.2693 29.4027 75.76 30.448C76.272 31.472 76.7947 32.592 77.328 33.808C77.8827 35.0027 78.4267 36.2293 78.96 37.488C79.4933 38.7467 79.9947 39.9307 80.464 41.04C80.9333 39.9307 81.4347 38.7467 81.968 37.488C82.5013 36.2293 83.0347 35.0027 83.568 33.808C84.1227 32.592 84.6453 31.472 85.136 30.448C85.648 29.4027 86.096 28.528 86.48 27.824H91.024C91.2373 29.296 91.4293 30.9493 91.6 32.784C91.792 34.5973 91.952 36.496 92.08 38.48C92.2293 40.4427 92.3573 42.416 92.464 44.4C92.592 46.384 92.6987 48.2507 92.784 50H87.92C87.856 47.8453 87.7707 45.4987 87.664 42.96C87.5573 40.4213 87.3973 37.8613 87.184 35.28C86.8 36.176 86.3733 37.168 85.904 38.256C85.4347 39.344 84.9653 40.432 84.496 41.52C84.048 42.608 83.6107 43.6533 83.184 44.656C82.7573 45.6373 82.3947 46.48 82.096 47.184H78.608C78.3093 46.48 77.9467 45.6373 77.52 44.656C77.0933 43.6533 76.6453 42.608 76.176 41.52C75.728 40.432 75.2693 39.344 74.8 38.256C74.3307 37.168 73.904 36.176 73.52 35.28C73.3067 37.8613 73.1467 40.4213 73.04 42.96C72.9333 45.4987 72.848 47.8453 72.784 50H67.92C68.0053 48.2507 68.1013 46.384 68.208 44.4C68.336 42.416 68.464 40.4427 68.592 38.48C68.7413 36.496 68.9013 34.5973 69.072 32.784C69.264 30.9493 69.4667 29.296 69.68 27.824H74.448ZM96.1588 41.712C96.1588 40.2187 96.3828 38.9173 96.8307 37.808C97.3001 36.6773 97.9081 35.7387 98.6548 34.992C99.4014 34.2453 100.255 33.68 101.215 33.296C102.196 32.912 103.199 32.72 104.223 32.72C106.612 32.72 108.5 33.456 109.887 34.928C111.273 36.3787 111.967 38.5227 111.967 41.36C111.967 41.6373 111.956 41.9467 111.935 42.288C111.913 42.608 111.892 42.896 111.871 43.152H101.055C101.161 44.1333 101.62 44.912 102.431 45.488C103.241 46.064 104.329 46.352 105.695 46.352C106.569 46.352 107.423 46.2773 108.255 46.128C109.108 45.9573 109.801 45.7547 110.335 45.52L110.975 49.392C110.719 49.52 110.377 49.648 109.951 49.776C109.524 49.904 109.044 50.0107 108.511 50.096C107.999 50.2027 107.444 50.288 106.847 50.352C106.249 50.416 105.652 50.448 105.055 50.448C103.54 50.448 102.217 50.224 101.087 49.776C99.9774 49.328 99.0494 48.72 98.3028 47.952C97.5774 47.1627 97.0334 46.2347 96.6708 45.168C96.3294 44.1013 96.1588 42.9493 96.1588 41.712ZM107.359 39.888C107.337 39.4827 107.263 39.088 107.135 38.704C107.028 38.32 106.847 37.9787 106.591 37.68C106.356 37.3813 106.047 37.136 105.663 36.944C105.3 36.752 104.841 36.656 104.287 36.656C103.753 36.656 103.295 36.752 102.911 36.944C102.527 37.1147 102.207 37.3493 101.951 37.648C101.695 37.9467 101.492 38.2987 101.343 38.704C101.215 39.088 101.119 39.4827 101.055 39.888H107.359ZM131.39 41.552C131.39 42.8747 131.198 44.0907 130.814 45.2C130.43 46.288 129.876 47.2267 129.15 48.016C128.425 48.784 127.55 49.3813 126.526 49.808C125.524 50.2347 124.393 50.448 123.134 50.448C121.897 50.448 120.766 50.2347 119.742 49.808C118.74 49.3813 117.876 48.784 117.15 48.016C116.425 47.2267 115.86 46.288 115.454 45.2C115.049 44.0907 114.846 42.8747 114.846 41.552C114.846 40.2293 115.049 39.024 115.454 37.936C115.881 36.848 116.457 35.92 117.182 35.152C117.929 34.384 118.804 33.7867 119.806 33.36C120.83 32.9333 121.94 32.72 123.134 32.72C124.35 32.72 125.46 32.9333 126.462 33.36C127.486 33.7867 128.361 34.384 129.086 35.152C129.812 35.92 130.377 36.848 130.782 37.936C131.188 39.024 131.39 40.2293 131.39 41.552ZM126.526 41.552C126.526 40.08 126.228 38.928 125.63 38.096C125.054 37.2427 124.222 36.816 123.134 36.816C122.046 36.816 121.204 37.2427 120.606 38.096C120.009 38.928 119.71 40.08 119.71 41.552C119.71 43.024 120.009 44.1973 120.606 45.072C121.204 45.9253 122.046 46.352 123.134 46.352C124.222 46.352 125.054 45.9253 125.63 45.072C126.228 44.1973 126.526 43.024 126.526 41.552ZM144.949 40.336C144.522 41.9573 144.063 43.568 143.573 45.168C143.103 46.768 142.602 48.3787 142.069 50H138.357C137.973 49.104 137.557 48.0373 137.109 46.8C136.661 45.5627 136.191 44.2187 135.701 42.768C135.231 41.296 134.741 39.7493 134.229 38.128C133.738 36.4853 133.258 34.832 132.789 33.168H137.813C137.983 33.936 138.165 34.7787 138.357 35.696C138.57 36.592 138.783 37.52 138.997 38.48C139.231 39.44 139.466 40.4107 139.701 41.392C139.957 42.352 140.213 43.28 140.469 44.176C140.746 43.2373 141.013 42.2773 141.269 41.296C141.546 40.3147 141.802 39.3547 142.037 38.416C142.293 37.456 142.527 36.5387 142.741 35.664C142.975 34.768 143.178 33.936 143.349 33.168H146.805C146.975 33.936 147.167 34.768 147.381 35.664C147.594 36.5387 147.818 37.456 148.053 38.416C148.287 39.3547 148.533 40.3147 148.789 41.296C149.045 42.2773 149.311 43.2373 149.589 44.176C149.845 43.28 150.101 42.352 150.357 41.392C150.613 40.4107 150.847 39.44 151.061 38.48C151.295 37.52 151.509 36.592 151.701 35.696C151.914 34.7787 152.106 33.936 152.277 33.168H157.237C156.767 34.832 156.277 36.4853 155.765 38.128C155.274 39.7493 154.783 41.296 154.293 42.768C153.823 44.2187 153.354 45.5627 152.885 46.8C152.437 48.0373 152.021 49.104 151.637 50H147.925C147.391 48.3787 146.869 46.768 146.357 45.168C145.845 43.568 145.375 41.9573 144.949 40.336ZM172.802 45.936C173.037 45.9573 173.303 45.9787 173.602 46C173.922 46 174.295 46 174.722 46C177.218 46 179.063 45.3707 180.258 44.112C181.474 42.8533 182.082 41.1147 182.082 38.896C182.082 36.5707 181.506 34.8107 180.354 33.616C179.202 32.4213 177.378 31.824 174.882 31.824C174.541 31.824 174.189 31.8347 173.826 31.856C173.463 31.856 173.122 31.8773 172.802 31.92V45.936ZM187.234 38.896C187.234 40.816 186.935 42.4907 186.338 43.92C185.741 45.3493 184.887 46.5333 183.778 47.472C182.69 48.4107 181.357 49.1147 179.778 49.584C178.199 50.0533 176.429 50.288 174.466 50.288C173.57 50.288 172.525 50.2453 171.33 50.16C170.135 50.096 168.962 49.9467 167.81 49.712V28.112C168.962 27.8987 170.157 27.76 171.394 27.696C172.653 27.6107 173.73 27.568 174.626 27.568C176.525 27.568 178.242 27.7813 179.778 28.208C181.335 28.6347 182.669 29.3067 183.778 30.224C184.887 31.1413 185.741 32.3147 186.338 33.744C186.935 35.1733 187.234 36.8907 187.234 38.896ZM201.228 37.392C200.801 37.2853 200.3 37.1787 199.724 37.072C199.148 36.944 198.529 36.88 197.868 36.88C197.569 36.88 197.206 36.912 196.78 36.976C196.374 37.0187 196.065 37.072 195.852 37.136V50H191.084V34.064C191.937 33.7653 192.94 33.488 194.092 33.232C195.265 32.9547 196.566 32.816 197.996 32.816C198.252 32.816 198.561 32.8373 198.924 32.88C199.286 32.9013 199.649 32.944 200.012 33.008C200.374 33.0507 200.737 33.1147 201.1 33.2C201.462 33.264 201.772 33.3493 202.028 33.456L201.228 37.392ZM209.352 50H204.584V33.168H209.352V50ZM209.8 28.304C209.8 29.1787 209.512 29.872 208.936 30.384C208.381 30.8747 207.72 31.12 206.952 31.12C206.184 31.12 205.512 30.8747 204.936 30.384C204.381 29.872 204.104 29.1787 204.104 28.304C204.104 27.4293 204.381 26.7467 204.936 26.256C205.512 25.744 206.184 25.488 206.952 25.488C207.72 25.488 208.381 25.744 208.936 26.256C209.512 26.7467 209.8 27.4293 209.8 28.304ZM217.91 50C216.822 47.8667 215.712 45.3707 214.582 42.512C213.472 39.6533 212.416 36.5387 211.414 33.168H216.47C216.683 34 216.928 34.9067 217.206 35.888C217.504 36.848 217.803 37.8293 218.102 38.832C218.422 39.8133 218.731 40.7733 219.03 41.712C219.35 42.6507 219.659 43.504 219.958 44.272C220.235 43.504 220.534 42.6507 220.854 41.712C221.174 40.7733 221.483 39.8133 221.782 38.832C222.102 37.8293 222.4 36.848 222.678 35.888C222.976 34.9067 223.232 34 223.446 33.168H228.374C227.371 36.5387 226.304 39.6533 225.174 42.512C224.064 45.3707 222.966 47.8667 221.878 50H217.91ZM229.69 41.712C229.69 40.2187 229.914 38.9173 230.362 37.808C230.831 36.6773 231.439 35.7387 232.186 34.992C232.933 34.2453 233.786 33.68 234.746 33.296C235.727 32.912 236.73 32.72 237.754 32.72C240.143 32.72 242.031 33.456 243.418 34.928C244.805 36.3787 245.498 38.5227 245.498 41.36C245.498 41.6373 245.487 41.9467 245.466 42.288C245.445 42.608 245.423 42.896 245.402 43.152H234.586C234.693 44.1333 235.151 44.912 235.962 45.488C236.773 46.064 237.861 46.352 239.226 46.352C240.101 46.352 240.954 46.2773 241.786 46.128C242.639 45.9573 243.333 45.7547 243.866 45.52L244.506 49.392C244.25 49.52 243.909 49.648 243.482 49.776C243.055 49.904 242.575 50.0107 242.042 50.096C241.53 50.2027 240.975 50.288 240.378 50.352C239.781 50.416 239.183 50.448 238.586 50.448C237.071 50.448 235.749 50.224 234.618 49.776C233.509 49.328 232.581 48.72 231.834 47.952C231.109 47.1627 230.565 46.2347 230.202 45.168C229.861 44.1013 229.69 42.9493 229.69 41.712ZM240.89 39.888C240.869 39.4827 240.794 39.088 240.666 38.704C240.559 38.32 240.378 37.9787 240.122 37.68C239.887 37.3813 239.578 37.136 239.194 36.944C238.831 36.752 238.373 36.656 237.818 36.656C237.285 36.656 236.826 36.752 236.442 36.944C236.058 37.1147 235.738 37.3493 235.482 37.648C235.226 37.9467 235.023 38.2987 234.874 38.704C234.746 39.088 234.65 39.4827 234.586 39.888H240.89Z" fill="black"/>
<path d="M48.125 50.0163L44.5833 47.3736L43.5417 46.9821L41.5625 47.3736L39.4792 47.9608L36.0417 48.5481H32.3958L31.3542 49.429V51.093L31.875 54.5188C32.1715 55.5773 31.624 56.6893 30.6044 57.0999L30.2083 57.2594H28.75L28.336 57.9401C28.0595 58.3948 27.6906 58.7862 27.2531 59.0891C26.4119 59.6716 25.3711 59.8899 24.3667 59.6946L23.5222 59.5304C23.1237 59.453 22.7481 59.286 22.4236 59.0421C21.7503 58.5359 21.3542 57.7426 21.3542 56.9003V56.3785L21.875 54.1272V51.093L21.3542 47.3736L19.375 44.8287L15.7292 44.0457H11.5625L10.625 45.8075L8.64584 48.5481L7.29167 52.0718L6.84842 52.8669C6.40274 53.6664 5.62824 54.2296 4.73032 54.4073C4.35769 54.481 3.97472 54.486 3.6003 54.422L2.66252 54.2618C2.14609 54.1736 1.66081 53.9547 1.25279 53.6261L1.22174 53.6011C0.700478 53.1813 0.336994 52.5971 0.190665 51.944C0.0662031 51.3885 0.104675 50.8088 0.301464 50.2747L0.9375 48.5481L2.8125 45.8075L4.16667 41.5008L5.31249 36.7047C5.27777 35.6933 6.05 33.6915 6.3 33.3C6.55 32.9085 7.3611 30.6688 8.12499 29.6574L11.1458 25.938L13.125 22.2186L14.8958 17.2268L14.5833 15.0734L14.2708 12.2349L13.75 8.80914L13.5417 6.94943L13.125 3.62153V1.6607C13.125 1.55406 13.1395 1.44791 13.168 1.34516C13.3634 0.641795 14.1445 0.283242 14.8052 0.593659L15.2083 0.783034L15.6247 1.09045C16.3081 1.59496 16.8516 2.26525 17.2041 3.03807L17.6042 3.91517L18.6458 6.46003L19.5 8.80914L21.3542 12.2349L21.9939 13.5464C22.3269 14.2292 22.5 14.9788 22.5 15.7384V20.1631C23.096 21.0678 24.4511 20.9766 24.9204 20.0001L25.3125 19.1843L25.9375 16.8352V12.7243L26.4691 10.4407C26.5985 9.88501 26.8733 9.37375 27.2654 8.9593C28.3586 7.80368 30.1322 7.62058 31.4385 8.52851L36.7708 12.2349H38.3333H45.1042L51.7951 9.01078C52.459 8.69085 53.2292 9.17464 53.2292 9.91165V18.3034L53.6458 20.1631L54.6875 24.0783L55.8333 25.938L55.9375 29.6574L55.8333 32.398L53.2292 34.5514L50.7292 37.0962V39.3475L51.5625 41.5008L53.6458 44.0457L55.9375 46.9821L58.5417 50.0163L59.679 51.6193C59.8878 51.9137 60 52.2657 60 52.6266C60 53.0862 59.8182 53.5272 59.4943 53.8534L58.9071 54.4445C58.6674 54.6858 58.3702 54.862 58.0436 54.9564L56.5059 55.401C56.0705 55.5269 55.6052 55.5011 55.1863 55.3279L53.2292 54.5188L50.7292 52.0718L48.125 50.0163Z" fill="black"/>
<rect width="3.54072" height="5.71945" rx="1.77036" transform="matrix(0.99798 -0.06353 0.071913 0.997411 36.8438 21.0334)" fill="#15BCCA"/>
<rect width="3.54072" height="5.71945" rx="1.77036" transform="matrix(0.99798 -0.06353 0.071913 0.997411 47.7083 20.6816)" fill="#15BCCA"/>
</svg>
