<svg width="45" height="45" viewBox="0 0 45 45" fill="none" xmlns="http://www.w3.org/2000/svg">
<path d="M36.0938 37.5122L33.4375 35.5302L32.6563 35.2365L31.1719 35.5302L29.6094 35.9706L27.0313 36.4111H24.2969L23.5156 37.0718V38.3197L23.9063 40.8891C24.1286 41.6829 23.718 42.517 22.9533 42.8249L22.6563 42.9445H21.5625L21.252 43.4551C21.0447 43.7961 20.7679 44.0897 20.4398 44.3168C19.8089 44.7537 19.0284 44.9174 18.2751 44.771L17.6417 44.6478C17.3428 44.5897 17.061 44.4645 16.8177 44.2815C16.3127 43.9019 16.0156 43.307 16.0156 42.6752V42.2838L16.4063 40.5954V38.3197L16.0156 35.5302L14.5312 33.6215L11.7969 33.0343H8.67188L7.96875 34.3556L6.48438 36.4111L5.46875 39.0538L5.13632 39.6502C4.80206 40.2498 4.22118 40.6722 3.54774 40.8054C3.26827 40.8607 2.98104 40.8645 2.70022 40.8165L1.99689 40.6963C1.60957 40.6302 1.24561 40.466 0.939592 40.2196L0.916304 40.2008C0.525359 39.886 0.252746 39.4478 0.142999 38.958C0.0496523 38.5414 0.078506 38.1066 0.226098 37.706L0.703125 36.4111L2.10938 34.3556L3.125 31.1256L3.98437 27.5285C3.95833 26.77 4.5375 25.2686 4.725 24.975C4.9125 24.6814 5.52083 23.0016 6.09374 22.2431L8.35937 19.4535L9.84374 16.6639L11.1719 12.9201L10.9375 11.3051L10.7031 9.17618L10.3125 6.60685L10.1562 5.21207L9.84374 2.71615V1.24552C9.84374 1.16554 9.8546 1.08593 9.876 1.00887C10.0225 0.481346 10.6084 0.212432 11.1039 0.445244L11.4062 0.587276L11.4581 0.625525C12.1414 1.13004 12.685 1.80032 13.0374 2.57314L13.2031 2.93638L13.9844 4.84502L14.625 6.60685L16.0156 9.17618L16.3689 9.90043C16.7019 10.5832 16.875 11.3328 16.875 12.0924V15.1223C17.322 15.8009 18.3383 15.7324 18.6903 15.0001L18.9844 14.3883L19.4531 12.6264V9.54323L19.8518 7.8305C19.9489 7.41375 20.155 7.03031 20.449 6.71947C21.2689 5.85276 22.5992 5.71543 23.5788 6.39638L27.5781 9.17618H28.75H33.8281L38.4878 6.93085C39.1517 6.61091 39.9219 7.0947 39.9219 7.83171V13.7276L40.2344 15.1223L41.0156 18.0587L41.875 19.4535L41.9531 22.2431L41.875 24.2985L39.9219 25.9135L38.0469 27.8222V29.5106L38.6719 31.1256L40.2344 33.0343L41.9531 35.2365L43.9062 37.5122L44.7592 38.7145C44.9159 38.9352 45 39.1992 45 39.4699C45 39.8147 44.8637 40.1454 44.6207 40.39L44.2716 40.7414C44.032 40.9827 43.7348 41.1589 43.4082 41.2533L42.5476 41.5021C42.1122 41.628 41.6469 41.6022 41.228 41.4291L39.9219 40.8891L38.0469 39.0538L36.0938 37.5122Z" fill="white"/>
<rect width="2.65554" height="4.28958" rx="1.32777" transform="matrix(0.99798 -0.06353 0.071913 0.997411 27.6328 15.7754)" fill="#15BCCA"/>
<rect width="2.65554" height="4.28958" rx="1.32777" transform="matrix(0.99798 -0.06353 0.071913 0.997411 35.7812 15.5117)" fill="#15BCCA"/>
</svg>
